<?xml version="1.0" standalone="no"?>
<!DOCTYPE svg PUBLIC "-//W3C//DTD SVG 20010904//EN"
 "http://www.w3.org/TR/2001/REC-SVG-20010904/DTD/svg10.dtd">
<svg version="1.0" xmlns="http://www.w3.org/2000/svg"
 width="240.000000pt" height="168.000000pt" viewBox="0 0 240.000000 168.000000"
 preserveAspectRatio="xMidYMid meet">
<metadata>
Created by potrace 1.15, written by Peter Selinger 2001-2017
</metadata>
<g transform="translate(0.000000,168.000000) scale(0.100000,-0.100000)"
fill="#000000" stroke="none">
<path d="M467 1303 c-12 -11 -8 -23 8 -23 13 0 13 -3 3 -20 -19 -30 0 -52 56
-66 56 -14 60 -18 53 -39 -12 -29 -75 -19 -123 20 -56 46 -77 45 -32 -2 58
-61 34 -68 -39 -12 -43 34 -61 44 -53 29 10 -18 1 -14 -47 17 -131 89 -109 62
44 -53 185 -138 187 -144 11 -33 -58 37 -109 65 -112 62 -3 -4 -6 -1 -6 5 0 7
-6 12 -13 12 -7 0 -36 16 -66 36 -29 20 -51 31 -47 25 10 -16 140 -111 234
-170 45 -29 82 -55 82 -58 0 -3 -28 11 -62 29 -35 19 -97 50 -138 68 -41 19
-78 38 -81 43 -4 5 -9 4 -13 -1 -6 -10 24 -28 164 -102 19 -10 36 -25 38 -33
2 -10 -23 -1 -75 26 -43 22 -72 33 -65 24 8 -9 51 -35 98 -58 46 -24 82 -44
80 -46 -2 -2 -33 10 -70 26 -36 17 -66 28 -66 26 0 -2 29 -21 66 -41 36 -20
63 -38 62 -40 -2 -2 -26 3 -53 11 -45 13 -48 13 -30 -1 33 -25 129 -84 137
-84 4 0 8 -4 8 -9 0 -5 -17 0 -37 9 -21 10 -53 21 -72 25 -60 13 -30 -15 58
-53 70 -30 80 -38 60 -42 l-24 -6 27 -18 c15 -10 32 -15 38 -11 5 3 10 1 10
-5 0 -6 4 -8 10 -5 6 3 10 1 10 -5 0 -6 4 -9 9 -5 5 3 21 0 35 -6 20 -10 32
-9 54 0 22 10 25 10 15 0 -20 -20 -16 -49 6 -49 11 0 23 5 26 10 3 6 12 10 18
10 7 0 4 -5 -5 -11 -10 -5 -15 -16 -12 -24 7 -16 34 -20 49 -7 6 4 7 3 3 -2
-14 -18 -8 -36 12 -36 11 0 20 5 20 10 0 6 5 10 11 10 5 0 8 -4 5 -8 -2 -4 -1
-14 4 -22 8 -12 13 -13 30 -2 17 10 20 10 20 -3 0 -18 21 -20 38 -3 9 9 12 8
12 -6 0 -11 5 -16 13 -13 6 3 20 8 30 12 10 5 17 3 17 -5 0 -9 8 -7 25 4 15
10 25 12 25 6 0 -6 5 -8 12 -4 6 4 27 9 47 11 19 2 43 11 53 20 10 9 18 12 18
7 0 -5 7 2 16 14 9 13 14 31 11 41 -3 14 0 17 14 14 17 -5 17 -7 -4 -40 -12
-19 -25 -33 -29 -31 -3 2 -18 -8 -32 -21 -29 -27 -35 -57 -11 -47 11 4 15 -2
15 -22 0 -21 2 -24 10 -12 8 13 11 11 16 -7 7 -24 24 -32 24 -10 0 9 2 9 8 -1
5 -7 16 -10 24 -7 11 4 18 0 21 -12 3 -15 5 -15 14 6 l10 25 7 -29 c6 -23 9
-26 17 -14 8 12 10 12 20 -1 8 -12 12 -12 16 -2 4 10 8 10 19 1 11 -9 14 -8
14 5 0 19 11 21 28 4 9 -9 12 -8 12 5 0 15 3 16 22 6 18 -10 20 -9 15 5 -5 14
-3 15 13 6 25 -13 30 -13 30 5 0 9 6 12 17 8 13 -5 15 -2 11 15 -4 15 -2 19 8
15 26 -10 14 25 -17 51 -17 14 -34 26 -38 26 -4 0 -14 15 -23 33 -15 31 -15
34 2 45 17 10 18 8 13 -23 -3 -22 -2 -35 5 -35 6 0 18 -7 26 -16 9 -8 25 -17
36 -20 11 -2 30 -7 43 -10 12 -3 32 -7 44 -9 12 -2 27 -6 34 -10 6 -4 15 -1
20 6 7 11 12 12 29 2 23 -15 31 -16 29 -5 -3 19 2 23 16 12 11 -9 19 -9 28 -2
7 6 23 9 35 5 13 -3 22 -1 22 6 0 6 11 11 25 11 14 0 28 7 31 15 4 8 15 15 25
15 10 0 19 5 19 10 0 6 11 15 25 20 14 5 24 15 23 22 -2 8 6 12 20 11 12 -2
22 1 22 5 0 5 6 9 14 9 21 0 126 44 126 53 0 5 -10 10 -21 12 -14 2 9 16 70
41 50 22 89 43 86 47 -3 5 -20 4 -38 -1 -17 -6 -40 -12 -50 -14 -9 -2 -23 -7
-30 -11 -35 -20 15 19 73 56 66 43 66 43 -20 25 -14 -3 -5 4 20 16 25 12 47
26 48 30 2 5 8 7 13 3 5 -3 9 0 9 6 0 6 6 8 13 4 9 -5 9 -4 1 5 -9 10 -21 8
-54 -9 -23 -12 -43 -20 -45 -18 -2 2 34 23 81 47 46 23 82 46 79 51 -3 4 -40
-9 -82 -31 -87 -44 -84 -43 -77 -26 3 8 11 14 19 14 7 0 42 18 77 40 35 22 78
49 96 60 29 17 31 21 16 27 -10 4 -15 4 -11 0 8 -8 -114 -74 -137 -74 -8 0
-34 -11 -57 -25 -82 -47 -63 -25 31 35 52 33 103 69 115 79 11 10 35 26 53 37
27 16 42 34 27 34 -2 0 -57 -34 -122 -75 -77 -49 -120 -70 -124 -63 -7 11 109
108 129 108 6 0 12 7 16 15 8 23 -4 18 -62 -21 -30 -20 -56 -33 -59 -30 -3 3
-28 -13 -57 -34 -39 -31 -52 -36 -54 -24 -2 9 6 27 19 40 24 26 20 45 -6 24
-13 -11 -15 -8 -15 24 0 33 2 36 30 36 17 0 30 5 30 10 0 6 9 10 20 10 11 0
20 4 20 10 0 8 -89 10 -710 10 -179 1 -183 0 -270 -1 -36 -1 -74 -2 -85 -1
-11 0 -99 1 -195 2 l-174 2 -33 -36 c-35 -38 -41 -66 -20 -106 13 -25 13 -26
-20 -22 -18 2 -30 8 -27 13 12 19 -19 49 -64 62 -26 8 -48 21 -50 29 -4 22 38
30 65 13 31 -21 46 -19 40 5 -5 18 0 20 38 20 71 0 61 17 -14 25 -45 4 -76 3
-90 -4 -15 -8 -27 -9 -40 -1 -23 12 -26 12 -34 3z m553 -33 c0 -5 18 -10 40
-10 l40 0 0 -64 0 -64 -105 -1 -105 -1 0 29 c0 27 3 30 37 33 52 4 56 28 4 28
-34 0 -41 3 -41 20 0 18 7 20 55 20 30 0 55 5 55 10 0 6 5 10 10 10 6 0 10 -4
10 -10z m199 -9 c-19 -29 -4 -49 43 -61 66 -17 68 -18 68 -40 0 -17 -6 -20
-44 -20 -25 0 -46 5 -48 12 -3 7 -12 9 -22 5 -9 -4 -14 -11 -11 -17 4 -6 -10
-10 -34 -10 l-41 0 0 65 0 65 30 0 c17 0 30 5 30 10 0 6 9 10 20 10 17 0 18
-3 9 -19z m241 -56 c0 -81 2 -79 -62 -69 -31 5 -37 11 -40 33 -3 22 -11 29
-60 44 -62 20 -70 30 -38 47 15 8 29 7 55 -6 39 -18 55 -13 35 11 -11 13 -5
15 49 15 l61 0 0 -75z m308 30 c0 -35 -3 -45 -16 -46 -15 -1 -15 -2 1 -6 10
-3 17 -14 17 -28 0 -17 -7 -24 -27 -27 -27 -4 -28 -2 -25 37 l4 41 -36 -4
c-38 -4 -50 -22 -16 -22 31 0 26 -38 -7 -46 -20 -6 -31 -2 -45 16 -18 22 -24
75 -10 96 13 20 46 24 76 9 27 -14 28 -14 23 5 -4 17 0 20 28 20 33 0 33 -1
33 -45z m-805 -126 c193 1 361 1 372 1 11 0 154 0 318 -1 l298 0 -62 -50 c-34
-27 -67 -49 -73 -49 -6 0 -4 5 4 10 26 17 -8 12 -43 -6 l-32 -17 19 22 c26 29
13 38 -21 13 -70 -49 -110 -62 -192 -62 -63 0 -79 -3 -75 -14 3 -8 16 -12 32
-10 l27 4 -25 -9 c-14 -4 -30 -4 -37 1 -7 6 -16 7 -22 4 -5 -3 -11 -1 -13 6
-3 7 -7 5 -11 -6 -6 -15 -3 -18 18 -14 14 3 25 1 25 -3 0 -5 6 -9 14 -9 7 0
19 -6 25 -14 9 -11 3 -16 -33 -26 -38 -10 -47 -10 -70 5 -30 20 -32 30 -9 44
10 5 14 13 10 17 -5 5 -11 4 -15 -1 -11 -16 -41 -18 -134 -9 -61 6 -82 -9 -27
-20 17 -3 28 -10 25 -15 -3 -5 6 -12 22 -16 35 -9 63 -38 52 -56 -5 -7 -6 -17
-4 -21 3 -4 0 -8 -6 -8 -6 0 -9 -3 -6 -8 2 -4 -9 -15 -25 -24 l-30 -17 24 32
c23 31 35 83 16 72 -5 -4 -9 -12 -9 -19 0 -7 -9 -25 -20 -39 -12 -15 -20 -40
-20 -64 l0 -38 -20 32 c-10 17 -28 36 -38 42 -11 6 -25 24 -32 42 -11 26 -11
32 1 39 24 15 -15 23 -57 11 -29 -8 -40 -7 -48 3 -6 8 -24 17 -41 21 l-30 7
25 19 c26 19 49 23 88 13 19 -5 20 -9 10 -22 -11 -13 -11 -14 0 -8 8 5 26 12
40 16 l27 7 -29 12 c-16 6 -43 13 -60 15 -17 3 -44 9 -59 15 -16 6 -60 11 -98
11 -61 0 -78 4 -135 36 -68 37 -95 39 -53 5 31 -26 19 -27 -23 -1 -40 24 -55
26 -37 3 13 -15 12 -15 -11 -3 -32 17 -110 82 -110 91 0 9 32 17 43 12 4 -2
166 -4 360 -4z"/>
</g>
</svg>
